<svg xmlns="http://www.w3.org/2000/svg" width="24" height="24" viewBox="0 0 24 24" version="1.1" id="Following-1--Streamline-Ultimate.svg">
	<path d="M8.776992000000002 0.420552C7.410696 0.585864 6.13068 1.278216 5.250576 2.328C4.018464 3.797616 3.639552 5.782272 4.247064 7.5840000000000005C4.53324 8.432640000000001 4.949231999999999 9.103223999999999 5.579688 9.732192C6.413208 10.563744 7.460039999999999 11.085792000000001 8.665824 11.271288C9.043728 11.32944 9.820272000000001 11.32944 10.198176 11.271288C11.876208 11.013143999999999 13.277928 10.079352 14.13 8.652000000000001C14.88012 7.395456 15.092496 5.892072 14.721648000000002 4.464C14.430864 3.344352 13.750896 2.297088 12.847728 1.5778800000000002C12.216096 1.0749119999999999 11.371536 0.6720240000000001 10.60068 0.505944C10.0512 0.38757600000000003 9.329039999999999 0.35376 8.776992000000002 0.420552M8.796 1.9416000000000002C7.939824000000001 2.1 7.287024 2.427504 6.687336 2.999496C5.27328 4.348296 5.069568 6.554112000000001 6.210960000000001 8.158368000000001C6.406704 8.433528 6.8358 8.867448 7.093992000000001 9.05136C7.608312 9.41772 8.143583999999999 9.64392 8.772 9.760512C9.069887999999999 9.815784 9.794112 9.815784 10.092 9.760512C10.720416 9.64392 11.255688000000001 9.41772 11.770007999999999 9.05136C12.0282 8.867448 12.457296 8.433528 12.65304 8.158368000000001C13.75872 6.604296 13.608408 4.493136 12.29412 3.116808C11.733096000000002 2.529312 11.040936 2.14776 10.206912 1.9662240000000002C9.866112000000001 1.89204 9.133056 1.8792480000000003 8.796 1.9416000000000002M8.676 12.842376000000002C6.75288 13.00824 4.923864 13.767168 3.3918 15.034968000000001C3.054456 15.314136000000001 2.4183120000000002 15.949895999999999 2.1462480000000004 16.2798C1.390104 17.196672 0.819456 18.20508 0.429264 19.314C0.322896 19.616304 0.30453600000000003 19.694280000000003 0.303552 19.848C0.302592 19.99968 0.31332 20.049912 0.371736 20.167296C0.498672 20.422392 0.716904 20.568336000000002 0.9989040000000001 20.586744C1.251768 20.60328 1.390536 20.549976 1.5732240000000002 20.366136C1.709448 20.229048 1.7241119999999999 20.202912 1.810128 19.944C2.131056 18.977928 2.5746480000000003 18.158472 3.2067600000000005 17.364C3.476592 17.024856 4.136856 16.364592 4.476 16.09476C5.937144 14.932224000000001 7.624872 14.329199999999998 9.42 14.328287999999999C10.322184 14.327808 11.07564 14.448912 11.898624 14.726664C13.050336 15.115368 14.031696 15.715079999999999 14.943648000000001 16.58748C15.370800000000001 16.996128000000002 15.455160000000001 17.047176 15.72444 17.060088C15.881088 17.0676 15.928296 17.060064 16.037544 17.010047999999998C16.378944 16.853736 16.549872 16.53768 16.485336 16.182C16.448352 15.978096 16.381752 15.884447999999999 16.028256000000003 15.539232C14.502456 14.049072 12.605064 13.132895999999999 10.511904 12.875616C10.126344 12.828216000000001 9.063216 12.808968 8.676 12.842376000000002M19.347528 15.264503999999999C18.916800000000002 15.354528000000002 18.661968 15.836927999999999 18.818928 16.265088C18.866664 16.39536 18.940128 16.474512 19.999944 17.537592L21.130056 18.671208 16.943016 18.677592L12.756 18.684 12.620280000000001 18.747624C12.459792 18.822864 12.312312 18.967032 12.235896 19.123368C12.151896 19.295232 12.156960000000002 19.572552 12.247463999999999 19.757136000000003C12.329927999999999 19.925352 12.489 20.069952 12.663359999999999 20.135208C12.792672000000001 20.183568 12.829775999999999 20.184 16.962096000000003 20.184L21.130368 20.184 20.00028 21.318C18.929376 22.392623999999998 18.867384 22.459536 18.81672 22.596C18.592296 23.200512 19.182912 23.791248 19.788 23.567472C19.926336 23.516328 20.003448 23.442936 21.750912 21.69912C23.19012 20.262936 23.582304 19.858656 23.629512000000002 19.762536C23.747736 19.521936 23.728632 19.247736 23.57784 19.02C23.534112 18.954 22.706736000000003 18.109464000000003 21.739176 17.143272C20.221728 15.627936 19.961832 15.37824 19.847784 15.326160000000002C19.696512 15.257064 19.499352 15.232776 19.347528 15.264503999999999" stroke="none" fill="#ffffff" fill-rule="evenodd"></path>
</svg>